<svg xmlns="http://www.w3.org/2000/svg" width="880" height="440" viewBox="0 0 880 440" role="img" aria-label="NaxeCode&#x27;s GitHub activity">
<title>NaxeCode&#x27;s GitHub activity</title>
<defs>
<linearGradient id="aura" x1="0" y1="0" x2="1" y2="0"><stop offset="0.00" stop-color="#22baf3"/><stop offset="0.25" stop-color="#7c83ff"/><stop offset="0.50" stop-color="#cb69f3"/><stop offset="0.75" stop-color="#ff6592"/><stop offset="1.00" stop-color="#fea334"/></linearGradient>
<linearGradient id="glass" x1="0" y1="0" x2="0" y2="1"><stop offset="0" stop-color="#171b28"/><stop offset="1" stop-color="#0b0e1a"/></linearGradient>
<radialGradient id="nebulaA" cx="0.92" cy="0.02" r="0.7"><stop offset="0" stop-color="#cb69f3" stop-opacity="0.2"/><stop offset="1" stop-color="#cb69f3" stop-opacity="0"/></radialGradient>
<radialGradient id="nebulaB" cx="0.02" cy="0.98" r="0.65"><stop offset="0" stop-color="#22baf3" stop-opacity="0.12"/><stop offset="1" stop-color="#22baf3" stop-opacity="0"/></radialGradient>
<radialGradient id="nebulaC" cx="0.55" cy="0.5" r="0.5"><stop offset="0" stop-color="#7c83ff" stop-opacity="0.06"/><stop offset="1" stop-color="#7c83ff" stop-opacity="0"/></radialGradient>
<linearGradient id="rim" x1="0" y1="0" x2="1" y2="0"><stop offset="0" stop-color="#22baf3" stop-opacity="0"/><stop offset="0.5" stop-color="#7c83ff" stop-opacity="0.7"/><stop offset="1" stop-color="#ff6592" stop-opacity="0"/></linearGradient>
<linearGradient id="fadeV" x1="0" y1="0" x2="0" y2="1"><stop offset="0" stop-color="#384155" stop-opacity="0"/><stop offset="0.5" stop-color="#384155"/><stop offset="1" stop-color="#384155" stop-opacity="0"/></linearGradient>
<linearGradient id="fadeH" x1="0" y1="0" x2="1" y2="0"><stop offset="0" stop-color="#384155" stop-opacity="0"/><stop offset="0.5" stop-color="#384155"/><stop offset="1" stop-color="#384155" stop-opacity="0"/></linearGradient>
<linearGradient id="haze" x1="0" y1="0" x2="0" y2="1"><stop offset="0" stop-color="#cb69f3" stop-opacity="0.35"/><stop offset="1" stop-color="#7c83ff" stop-opacity="0"/></linearGradient>
<linearGradient id="beam" x1="0" y1="1" x2="0" y2="0"><stop offset="0" stop-color="#22baf3"/><stop offset="0.55" stop-color="#7c83ff"/><stop offset="1" stop-color="#cb69f3"/></linearGradient>
<linearGradient id="beamNow" x1="0" y1="1" x2="0" y2="0"><stop offset="0" stop-color="#ff6592"/><stop offset="1" stop-color="#fea334"/></linearGradient>
<filter id="glow" x="-50%" y="-50%" width="200%" height="200%"><feGaussianBlur stdDeviation="5"/></filter>
<clipPath id="frame"><rect width="880" height="440" rx="18"/></clipPath>
</defs>
<g clip-path="url(#frame)">
<rect width="880" height="440" fill="url(#glass)"/>
<rect width="880" height="440" fill="url(#nebulaA)"/><rect width="880" height="440" fill="url(#nebulaB)"/><rect width="880" height="440" fill="url(#nebulaC)"/>
<circle cx="595.7" cy="301.5" r="0.5" fill="#f1f3fc" opacity="0.10"/><circle cx="412.7" cy="349.8" r="0.8" fill="#f1f3fc" opacity="0.14"/><circle cx="731.9" cy="385.6" r="1.1" fill="#f1f3fc" opacity="0.13"/><circle cx="475.1" cy="399.9" r="1.1" fill="#f1f3fc" opacity="0.24"/><circle cx="272.4" cy="198.2" r="0.8" fill="#f1f3fc" opacity="0.35"/><circle cx="432.3" cy="171.1" r="0.8" fill="#f1f3fc" opacity="0.39"/><circle cx="422.0" cy="22.1" r="1.1" fill="#f1f3fc" opacity="0.15"/><circle cx="290.1" cy="426.6" r="0.8" fill="#94dcf5" opacity="0.19"/><circle cx="621.1" cy="117.2" r="0.6" fill="#f1f3fc" opacity="0.23"/><circle cx="567.2" cy="280.0" r="0.8" fill="#f1f3fc" opacity="0.26"/><circle cx="692.5" cy="181.4" r="0.5" fill="#f1f3fc" opacity="0.38"/><circle cx="771.2" cy="150.6" r="0.5" fill="#f1f3fc" opacity="0.33"/><circle cx="453.2" cy="423.4" r="0.5" fill="#f1f3fc" opacity="0.14"/><circle cx="20.2" cy="180.7" r="0.6" fill="#f1f3fc" opacity="0.25"/><circle cx="528.7" cy="138.0" r="1.1" fill="#f1f3fc" opacity="0.29"/><circle cx="158.2" cy="110.6" r="0.5" fill="#f1f3fc" opacity="0.15"/><circle cx="317.0" cy="39.0" r="1.1" fill="#f1f3fc" opacity="0.37"/><circle cx="76.5" cy="373.9" r="0.6" fill="#f1f3fc" opacity="0.18"/><circle cx="247.5" cy="421.5" r="1.1" fill="#f1f3fc" opacity="0.36"/><circle cx="122.3" cy="286.8" r="0.8" fill="#f1f3fc" opacity="0.34"/><circle cx="100.3" cy="10.0" r="0.5" fill="#94dcf5" opacity="0.11"/><circle cx="509.9" cy="403.4" r="0.5" fill="#f1f3fc" opacity="0.19"/><circle cx="106.0" cy="47.5" r="0.5" fill="#f1f3fc" opacity="0.17"/><circle cx="665.5" cy="87.4" r="0.8" fill="#f1f3fc" opacity="0.11"/><circle cx="112.8" cy="186.7" r="0.6" fill="#f1f3fc" opacity="0.34"/><circle cx="397.6" cy="75.6" r="1.1" fill="#f1f3fc" opacity="0.22"/><circle cx="157.6" cy="154.6" r="1.1" fill="#f1f3fc" opacity="0.32"/><circle cx="858.0" cy="311.3" r="0.8" fill="#f1f3fc" opacity="0.13"/><circle cx="127.9" cy="231.2" r="0.6" fill="#f1f3fc" opacity="0.28"/><circle cx="585.4" cy="360.2" r="0.6" fill="#94dcf5" opacity="0.28"/><circle cx="546.1" cy="374.5" r="0.8" fill="#94dcf5" opacity="0.38"/><circle cx="574.1" cy="418.8" r="0.6" fill="#f1f3fc" opacity="0.30"/><circle cx="836.0" cy="88.5" r="0.6" fill="#f1f3fc" opacity="0.20"/><circle cx="498.0" cy="123.9" r="0.5" fill="#f1f3fc" opacity="0.30"/><circle cx="61.3" cy="240.0" r="1.1" fill="#f1f3fc" opacity="0.22"/><circle cx="95.5" cy="22.7" r="1.1" fill="#f1f3fc" opacity="0.11"/><circle cx="539.9" cy="285.1" r="0.8" fill="#f1f3fc" opacity="0.10"/><circle cx="377.0" cy="406.9" r="0.8" fill="#f1f3fc" opacity="0.16"/><circle cx="796.6" cy="240.2" r="1.1" fill="#94dcf5" opacity="0.18"/><circle cx="74.3" cy="145.7" r="0.5" fill="#f1f3fc" opacity="0.37"/><circle cx="850.9" cy="202.1" r="0.6" fill="#f1f3fc" opacity="0.12"/><circle cx="814.0" cy="371.2" r="0.8" fill="#f1f3fc" opacity="0.36"/><circle cx="854.2" cy="91.7" r="1.1" fill="#f1f3fc" opacity="0.21"/><circle cx="49.0" cy="418.9" r="0.8" fill="#f1f3fc" opacity="0.22"/><circle cx="640.3" cy="374.0" r="0.5" fill="#94dcf5" opacity="0.14"/><circle cx="733.4" cy="105.8" r="0.5" fill="#f1f3fc" opacity="0.15"/><circle cx="536.9" cy="350.4" r="0.5" fill="#f1f3fc" opacity="0.15"/><circle cx="25.5" cy="169.3" r="0.6" fill="#f1f3fc" opacity="0.30"/><circle cx="742.4" cy="135.7" r="1.1" fill="#f1f3fc" opacity="0.26"/><circle cx="284.7" cy="435.0" r="0.8" fill="#f1f3fc" opacity="0.34"/><circle cx="443.6" cy="369.9" r="0.6" fill="#94dcf5" opacity="0.28"/><circle cx="428.9" cy="67.6" r="0.8" fill="#94dcf5" opacity="0.25"/><circle cx="855.6" cy="284.8" r="0.8" fill="#f1f3fc" opacity="0.24"/><circle cx="570.0" cy="214.5" r="0.8" fill="#f1f3fc" opacity="0.12"/><circle cx="403.7" cy="167.8" r="0.8" fill="#f1f3fc" opacity="0.36"/><circle cx="387.6" cy="304.1" r="0.5" fill="#f1f3fc" opacity="0.26"/><circle cx="286.9" cy="393.2" r="0.5" fill="#f1f3fc" opacity="0.26"/><circle cx="820.6" cy="222.4" r="0.8" fill="#f1f3fc" opacity="0.31"/><circle cx="467.0" cy="308.2" r="1.1" fill="#94dcf5" opacity="0.12"/><circle cx="777.6" cy="246.5" r="0.6" fill="#f1f3fc" opacity="0.24"/><circle cx="639.9" cy="26.5" r="0.8" fill="#94dcf5" opacity="0.34"/><circle cx="44.6" cy="176.0" r="0.8" fill="#f1f3fc" opacity="0.21"/><circle cx="297.5" cy="165.5" r="0.6" fill="#f1f3fc" opacity="0.26"/><circle cx="146.9" cy="120.6" r="0.5" fill="#f1f3fc" opacity="0.34"/><circle cx="631.9" cy="425.5" r="0.5" fill="#f1f3fc" opacity="0.31"/><circle cx="440.1" cy="105.4" r="1.1" fill="#f1f3fc" opacity="0.26"/><circle cx="319.3" cy="258.5" r="0.6" fill="#94dcf5" opacity="0.14"/><circle cx="695.0" cy="296.4" r="1.1" fill="#94dcf5" opacity="0.39"/><circle cx="140.5" cy="185.7" r="0.5" fill="#f1f3fc" opacity="0.23"/><circle cx="620.6" cy="406.3" r="0.5" fill="#f1f3fc" opacity="0.23"/><circle cx="407.1" cy="91.1" r="0.5" fill="#f1f3fc" opacity="0.13"/><circle cx="584.6" cy="269.6" r="1.1" fill="#f1f3fc" opacity="0.12"/><circle cx="673.6" cy="236.8" r="0.8" fill="#94dcf5" opacity="0.35"/><circle cx="163.6" cy="85.0" r="0.5" fill="#f1f3fc" opacity="0.18"/><circle cx="550.1" cy="205.6" r="0.6" fill="#94dcf5" opacity="0.28"/><circle cx="357.7" cy="281.5" r="0.8" fill="#94dcf5" opacity="0.36"/><circle cx="315.4" cy="43.7" r="0.6" fill="#f1f3fc" opacity="0.21"/><circle cx="736.8" cy="38.6" r="0.8" fill="#f1f3fc" opacity="0.28"/><circle cx="756.5" cy="383.1" r="1.1" fill="#f1f3fc" opacity="0.34"/><circle cx="829.3" cy="256.2" r="0.6" fill="#f1f3fc" opacity="0.13"/><circle cx="275.4" cy="302.5" r="1.1" fill="#f1f3fc" opacity="0.35"/><circle cx="606.2" cy="426.9" r="0.8" fill="#f1f3fc" opacity="0.20"/><circle cx="598.9" cy="239.5" r="1.1" fill="#f1f3fc" opacity="0.12"/><circle cx="179.9" cy="242.5" r="0.8" fill="#f1f3fc" opacity="0.35"/><circle cx="151.6" cy="52.5" r="1.1" fill="#f1f3fc" opacity="0.37"/><circle cx="111.2" cy="154.2" r="0.5" fill="#f1f3fc" opacity="0.19"/><circle cx="391.0" cy="196.8" r="0.6" fill="#f1f3fc" opacity="0.35"/><circle cx="417.8" cy="121.5" r="0.5" fill="#f1f3fc" opacity="0.17"/><circle cx="738.9" cy="277.4" r="1.1" fill="#f1f3fc" opacity="0.38"/><circle cx="548.5" cy="427.0" r="0.6" fill="#94dcf5" opacity="0.35"/><circle cx="135.4" cy="157.1" r="0.6" fill="#f1f3fc" opacity="0.15"/><circle cx="181.1" cy="37.5" r="0.6" fill="#f1f3fc" opacity="0.22"/><circle cx="241.7" cy="99.7" r="0.8" fill="#f1f3fc" opacity="0.23"/><circle cx="387.1" cy="249.0" r="1.1" fill="#f1f3fc" opacity="0.23"/><circle cx="167.2" cy="426.0" r="0.6" fill="#94dcf5" opacity="0.33"/><circle cx="697.4" cy="383.6" r="1.1" fill="#f1f3fc" opacity="0.33"/><circle cx="843.0" cy="10.9" r="0.8" fill="#f1f3fc" opacity="0.18"/><circle cx="150.6" cy="127.7" r="0.6" fill="#f1f3fc" opacity="0.18"/><circle cx="270.2" cy="273.8" r="1.1" fill="#f1f3fc" opacity="0.37"/><circle cx="487.2" cy="98.5" r="1.1" fill="#f1f3fc" opacity="0.25"/><circle cx="856.0" cy="76.2" r="1.1" fill="#f1f3fc" opacity="0.38"/><circle cx="614.6" cy="336.3" r="0.8" fill="#94dcf5" opacity="0.17"/><circle cx="567.2" cy="279.5" r="0.5" fill="#f1f3fc" opacity="0.27"/><circle cx="844.6" cy="141.9" r="0.6" fill="#94dcf5" opacity="0.18"/><circle cx="674.9" cy="317.2" r="1.1" fill="#f1f3fc" opacity="0.26"/><circle cx="249.8" cy="226.9" r="0.6" fill="#f1f3fc" opacity="0.11"/><circle cx="478.5" cy="188.2" r="1.1" fill="#f1f3fc" opacity="0.17"/><circle cx="741.8" cy="353.4" r="1.1" fill="#f1f3fc" opacity="0.24"/><circle cx="524.5" cy="288.8" r="1.1" fill="#f1f3fc" opacity="0.21"/><circle cx="289.5" cy="210.9" r="0.6" fill="#f1f3fc" opacity="0.24"/><circle cx="494.1" cy="371.7" r="1.1" fill="#94dcf5" opacity="0.34"/><circle cx="83.7" cy="142.2" r="1.1" fill="#f1f3fc" opacity="0.20"/><circle cx="517.1" cy="156.7" r="1.1" fill="#f1f3fc" opacity="0.28"/><circle cx="60.9" cy="187.6" r="0.6" fill="#f1f3fc" opacity="0.18"/><circle cx="672.5" cy="285.8" r="0.8" fill="#f1f3fc" opacity="0.33"/><circle cx="267.8" cy="374.1" r="0.8" fill="#f1f3fc" opacity="0.38"/><circle cx="674.0" cy="424.7" r="0.8" fill="#f1f3fc" opacity="0.20"/><circle cx="579.2" cy="7.0" r="1.1" fill="#94dcf5" opacity="0.39"/><circle cx="479.5" cy="395.1" r="0.6" fill="#f1f3fc" opacity="0.35"/><circle cx="488.3" cy="163.6" r="1.1" fill="#f1f3fc" opacity="0.35"/><circle cx="292.9" cy="269.7" r="0.5" fill="#f1f3fc" opacity="0.27"/><circle cx="497.2" cy="217.8" r="0.8" fill="#f1f3fc" opacity="0.34"/><circle cx="329.8" cy="207.9" r="1.1" fill="#f1f3fc" opacity="0.12"/><circle cx="654.6" cy="217.0" r="0.8" fill="#f1f3fc" opacity="0.30"/><circle cx="199.9" cy="324.0" r="0.5" fill="#f1f3fc" opacity="0.33"/><circle cx="787.3" cy="128.4" r="0.5" fill="#f1f3fc" opacity="0.22"/><circle cx="809.2" cy="5.9" r="0.6" fill="#f1f3fc" opacity="0.12"/><circle cx="350.8" cy="243.7" r="1.1" fill="#f1f3fc" opacity="0.29"/><circle cx="587.2" cy="30.1" r="0.5" fill="#f1f3fc" opacity="0.21"/><circle cx="680.9" cy="338.0" r="0.6" fill="#f1f3fc" opacity="0.33"/><circle cx="650.2" cy="9.0" r="0.5" fill="#f1f3fc" opacity="0.39"/><circle cx="645.2" cy="273.8" r="1.1" fill="#f1f3fc" opacity="0.31"/><circle cx="436.2" cy="356.9" r="0.8" fill="#f1f3fc" opacity="0.17"/><circle cx="537.9" cy="77.3" r="1.1" fill="#f1f3fc" opacity="0.18"/><circle cx="812.7" cy="326.7" r="0.6" fill="#f1f3fc" opacity="0.38"/><circle cx="250.8" cy="205.8" r="0.5" fill="#f1f3fc" opacity="0.21"/><circle cx="376.5" cy="92.5" r="0.5" fill="#94dcf5" opacity="0.32"/><circle cx="149.7" cy="218.9" r="0.5" fill="#f1f3fc" opacity="0.31"/><circle cx="187.4" cy="152.0" r="1.1" fill="#f1f3fc" opacity="0.32"/><circle cx="50.0" cy="125.5" r="1.1" fill="#f1f3fc" opacity="0.22"/><circle cx="867.2" cy="60.3" r="0.8" fill="#f1f3fc" opacity="0.39"/><circle cx="464.3" cy="167.5" r="0.5" fill="#f1f3fc" opacity="0.39"/><circle cx="165.0" cy="334.9" r="0.6" fill="#f1f3fc" opacity="0.20"/><circle cx="76.7" cy="221.1" r="0.6" fill="#f1f3fc" opacity="0.35"/><circle cx="759.5" cy="51.7" r="1.1" fill="#f1f3fc" opacity="0.21"/><circle cx="16.6" cy="421.1" r="0.6" fill="#f1f3fc" opacity="0.11"/><circle cx="736.3" cy="306.0" r="0.5" fill="#f1f3fc" opacity="0.11"/><circle cx="677.3" cy="154.9" r="0.5" fill="#f1f3fc" opacity="0.32"/><circle cx="162.4" cy="58.4" r="0.8" fill="#f1f3fc" opacity="0.19"/><circle cx="482.8" cy="86.7" r="1.1" fill="#f1f3fc" opacity="0.29"/><circle cx="716.1" cy="49.6" r="0.5" fill="#f1f3fc" opacity="0.28"/><circle cx="863.8" cy="69.1" r="0.6" fill="#f1f3fc" opacity="0.35"/><circle cx="483.1" cy="308.8" r="1.1" fill="#f1f3fc" opacity="0.23"/><circle cx="848.1" cy="249.3" r="0.6" fill="#f1f3fc" opacity="0.23"/><circle cx="865.1" cy="198.9" r="1.1" fill="#f1f3fc" opacity="0.38"/><circle cx="397.6" cy="361.3" r="0.6" fill="#f1f3fc" opacity="0.34"/><circle cx="336.6" cy="287.8" r="1.1" fill="#f1f3fc" opacity="0.10"/><circle cx="108.8" cy="94.3" r="0.6" fill="#f1f3fc" opacity="0.35"/><circle cx="589.8" cy="330.8" r="0.6" fill="#f1f3fc" opacity="0.29"/><circle cx="223.7" cy="311.7" r="1.1" fill="#f1f3fc" opacity="0.11"/><circle cx="268.5" cy="379.5" r="0.5" fill="#94dcf5" opacity="0.39"/><circle cx="188.8" cy="132.2" r="0.8" fill="#f1f3fc" opacity="0.34"/><circle cx="44.6" cy="339.5" r="0.8" fill="#f1f3fc" opacity="0.36"/><circle cx="731.9" cy="105.5" r="0.6" fill="#94dcf5" opacity="0.22"/><circle cx="323.6" cy="96.1" r="1.1" fill="#f1f3fc" opacity="0.31"/><circle cx="209.8" cy="212.3" r="0.5" fill="#f1f3fc" opacity="0.27"/><circle cx="393.7" cy="119.0" r="0.6" fill="#f1f3fc" opacity="0.15"/><circle cx="56.2" cy="84.9" r="0.6" fill="#f1f3fc" opacity="0.29"/><circle cx="55.5" cy="141.5" r="0.5" fill="#94dcf5" opacity="0.25"/><circle cx="787.4" cy="369.6" r="0.8" fill="#f1f3fc" opacity="0.14"/><circle cx="742.0" cy="180.5" r="0.8" fill="#94dcf5" opacity="0.31"/><circle cx="39.0" cy="403.3" r="0.5" fill="#f1f3fc" opacity="0.10"/><circle cx="707.8" cy="291.2" r="1.1" fill="#f1f3fc" opacity="0.31"/><circle cx="786.1" cy="9.7" r="1.1" fill="#f1f3fc" opacity="0.39"/><circle cx="537.5" cy="175.0" r="1.1" fill="#f1f3fc" opacity="0.33"/><circle cx="463.3" cy="7.3" r="0.5" fill="#f1f3fc" opacity="0.19"/><circle cx="295.8" cy="175.5" r="0.6" fill="#f1f3fc" opacity="0.18"/><circle cx="419.6" cy="429.8" r="0.6" fill="#f1f3fc" opacity="0.23"/><circle cx="421.0" cy="333.6" r="0.5" fill="#f1f3fc" opacity="0.29"/><circle cx="479.6" cy="265.3" r="0.5" fill="#f1f3fc" opacity="0.13"/><circle cx="674.5" cy="188.9" r="0.6" fill="#f1f3fc" opacity="0.40"/><circle cx="388.1" cy="339.1" r="0.8" fill="#f1f3fc" opacity="0.16"/><circle cx="559.1" cy="398.7" r="1.1" fill="#f1f3fc" opacity="0.33"/><circle cx="556.8" cy="121.3" r="0.6" fill="#f1f3fc" opacity="0.39"/><circle cx="37.7" cy="230.6" r="1.1" fill="#f1f3fc" opacity="0.12"/><circle cx="155.8" cy="37.6" r="1.1" fill="#f1f3fc" opacity="0.15"/><circle cx="37.9" cy="40.4" r="1.1" fill="#f1f3fc" opacity="0.36"/><circle cx="653.4" cy="219.4" r="0.8" fill="#f1f3fc" opacity="0.37"/><circle cx="250.6" cy="365.8" r="0.5" fill="#f1f3fc" opacity="0.30"/><circle cx="169.5" cy="20.5" r="1.1" fill="#f1f3fc" opacity="0.22"/><circle cx="377.1" cy="157.6" r="1.1" fill="#f1f3fc" opacity="0.28"/><circle cx="817.6" cy="197.5" r="1.1" fill="#f1f3fc" opacity="0.19"/><circle cx="351.9" cy="429.9" r="0.8" fill="#f1f3fc" opacity="0.19"/><circle cx="102.2" cy="259.2" r="0.5" fill="#f1f3fc" opacity="0.30"/><circle cx="409.1" cy="420.8" r="0.6" fill="#f1f3fc" opacity="0.16"/><circle cx="725.1" cy="318.7" r="0.5" fill="#f1f3fc" opacity="0.17"/><circle cx="185.1" cy="218.5" r="1.1" fill="#f1f3fc" opacity="0.14"/><circle cx="601.4" cy="42.6" r="0.5" fill="#f1f3fc" opacity="0.13"/><circle cx="91.4" cy="373.3" r="0.8" fill="#94dcf5" opacity="0.16"/><circle cx="684.6" cy="182.4" r="0.5" fill="#f1f3fc" opacity="0.29"/><circle cx="465.0" cy="202.3" r="1.1" fill="#f1f3fc" opacity="0.27"/><circle cx="205.6" cy="127.1" r="1.1" fill="#f1f3fc" opacity="0.22"/><circle cx="109.0" cy="13.5" r="1.1" fill="#f1f3fc" opacity="0.38"/><circle cx="4.1" cy="427.4" r="1.1" fill="#f1f3fc" opacity="0.15"/><circle cx="151.7" cy="347.6" r="0.8" fill="#f1f3fc" opacity="0.20"/><circle cx="249.7" cy="259.5" r="0.8" fill="#f1f3fc" opacity="0.33"/><circle cx="317.1" cy="11.4" r="0.6" fill="#f1f3fc" opacity="0.35"/><circle cx="807.5" cy="81.1" r="0.5" fill="#f1f3fc" opacity="0.12"/><circle cx="774.6" cy="111.9" r="0.6" fill="#f1f3fc" opacity="0.25"/><circle cx="28.7" cy="164.5" r="1.1" fill="#94dcf5" opacity="0.27"/><circle cx="710.8" cy="265.3" r="0.5" fill="#94dcf5" opacity="0.27"/><circle cx="840.2" cy="284.7" r="0.6" fill="#f1f3fc" opacity="0.38"/><circle cx="162.2" cy="312.1" r="1.1" fill="#f1f3fc" opacity="0.34"/><circle cx="28.9" cy="340.8" r="0.5" fill="#94dcf5" opacity="0.13"/><circle cx="861.8" cy="108.3" r="0.8" fill="#f1f3fc" opacity="0.11"/><circle cx="67.5" cy="219.8" r="1.1" fill="#94dcf5" opacity="0.29"/><circle cx="439.9" cy="24.7" r="0.8" fill="#94dcf5" opacity="0.17"/><circle cx="464.0" cy="60.3" r="1.1" fill="#94dcf5" opacity="0.19"/><circle cx="19.5" cy="299.7" r="0.5" fill="#94dcf5" opacity="0.38"/><circle cx="669.0" cy="386.1" r="0.8" fill="#f1f3fc" opacity="0.31"/><circle cx="460.9" cy="232.1" r="0.8" fill="#f1f3fc" opacity="0.25"/><circle cx="585.1" cy="5.8" r="0.5" fill="#f1f3fc" opacity="0.39"/><circle cx="215.2" cy="302.3" r="0.8" fill="#f1f3fc" opacity="0.36"/><circle cx="153.7" cy="276.3" r="0.8" fill="#f1f3fc" opacity="0.20"/><circle cx="107.7" cy="271.4" r="0.5" fill="#f1f3fc" opacity="0.15"/><circle cx="665.4" cy="32.8" r="1.1" fill="#f1f3fc" opacity="0.14"/><circle cx="176.5" cy="90.3" r="0.8" fill="#f1f3fc" opacity="0.26"/>
<rect x="60" y="0" width="760" height="1.5" fill="url(#rim)"/>
</g>
<rect x="0.5" y="0.5" width="879" height="439" rx="18" fill="none" stroke="#384155"/>
<rect x="440" y="28" width="1" height="160" fill="url(#fadeV)"/>
<rect x="32" y="204" width="816" height="1" fill="url(#fadeH)"/>
<text x="32" y="40" fill="#bdd3ef" font-family="Inter, 'Segoe UI', Ubuntu, 'Helvetica Neue', Arial, sans-serif" font-size="11" font-weight="600" letter-spacing="2.2">GITHUB AT A GLANCE</text><text x="32" y="88" fill="url(#aura)" font-family="Inter, 'Segoe UI', Ubuntu, 'Helvetica Neue', Arial, sans-serif" font-size="42" font-weight="800" letter-spacing="-1">6,127</text><text x="32" y="110" fill="#bdd3ef" font-family="Inter, 'Segoe UI', Ubuntu, 'Helvetica Neue', Arial, sans-serif" font-size="13">contributions since 2015</text><polygon points="244,110 244.0,96.0 247.3,96.5 250.6,96.9 253.9,102.5 257.2,101.0 260.5,95.2 263.8,99.9 267.1,105.9 270.4,100.5 273.6,99.2 276.9,95.6 280.2,94.5 283.5,104.6 286.8,105.0 290.1,101.2 293.4,99.2 296.7,110.0 300.0,108.5 303.3,106.8 306.6,109.1 309.9,107.0 313.2,108.9 316.5,103.8 319.8,93.6 323.1,99.7 326.4,90.8 329.6,97.1 332.9,107.2 336.2,93.6 339.5,107.2 342.8,105.7 346.1,99.3 349.4,106.6 352.7,101.4 356.0,105.5 359.3,101.2 362.6,98.6 365.9,105.1 369.2,108.1 372.5,108.1 375.8,108.7 379.1,107.4 382.4,110.0 385.6,107.8 388.9,106.4 392.2,95.4 395.5,107.9 398.8,97.5 402.1,90.4 405.4,82.0 408.7,99.7 412.0,56.0 412,110" fill="url(#haze)"/><polyline points="244.0,96.0 247.3,96.5 250.6,96.9 253.9,102.5 257.2,101.0 260.5,95.2 263.8,99.9 267.1,105.9 270.4,100.5 273.6,99.2 276.9,95.6 280.2,94.5 283.5,104.6 286.8,105.0 290.1,101.2 293.4,99.2 296.7,110.0 300.0,108.5 303.3,106.8 306.6,109.1 309.9,107.0 313.2,108.9 316.5,103.8 319.8,93.6 323.1,99.7 326.4,90.8 329.6,97.1 332.9,107.2 336.2,93.6 339.5,107.2 342.8,105.7 346.1,99.3 349.4,106.6 352.7,101.4 356.0,105.5 359.3,101.2 362.6,98.6 365.9,105.1 369.2,108.1 372.5,108.1 375.8,108.7 379.1,107.4 382.4,110.0 385.6,107.8 388.9,106.4 392.2,95.4 395.5,107.9 398.8,97.5 402.1,90.4 405.4,82.0 408.7,99.7 412.0,56.0" fill="none" stroke="url(#aura)" stroke-width="5" stroke-opacity="0.18" stroke-linejoin="round"/><polyline points="244.0,96.0 247.3,96.5 250.6,96.9 253.9,102.5 257.2,101.0 260.5,95.2 263.8,99.9 267.1,105.9 270.4,100.5 273.6,99.2 276.9,95.6 280.2,94.5 283.5,104.6 286.8,105.0 290.1,101.2 293.4,99.2 296.7,110.0 300.0,108.5 303.3,106.8 306.6,109.1 309.9,107.0 313.2,108.9 316.5,103.8 319.8,93.6 323.1,99.7 326.4,90.8 329.6,97.1 332.9,107.2 336.2,93.6 339.5,107.2 342.8,105.7 346.1,99.3 349.4,106.6 352.7,101.4 356.0,105.5 359.3,101.2 362.6,98.6 365.9,105.1 369.2,108.1 372.5,108.1 375.8,108.7 379.1,107.4 382.4,110.0 385.6,107.8 388.9,106.4 392.2,95.4 395.5,107.9 398.8,97.5 402.1,90.4 405.4,82.0 408.7,99.7 412.0,56.0" fill="none" stroke="url(#aura)" stroke-width="1.8" stroke-linejoin="round"/><circle cx="412.0" cy="56.0" r="2.6" fill="#f1f3fc"/><text x="412" y="128" fill="#8b95ad" font-family="'JetBrains Mono', 'SFMono-Regular', Consolas, 'Liberation Mono', monospace" font-size="10" letter-spacing="1" text-anchor="end">52 WEEKS</text><circle cx="35" cy="144" r="3" fill="#22baf3"/><circle cx="35" cy="144" r="7" fill="#22baf3" opacity="0.18"/><text x="48" y="148" font-family="Inter, 'Segoe UI', Ubuntu, 'Helvetica Neue', Arial, sans-serif" font-size="13.5"><tspan fill="#f1f3fc" font-weight="700">2,587</tspan><tspan fill="#8b95ad" dx="6">last 12 months</tspan></text><circle cx="227" cy="144" r="3" fill="#cb69f3"/><circle cx="227" cy="144" r="7" fill="#cb69f3" opacity="0.18"/><text x="240" y="148" font-family="Inter, 'Segoe UI', Ubuntu, 'Helvetica Neue', Arial, sans-serif" font-size="13.5"><tspan fill="#f1f3fc" font-weight="700">81</tspan><tspan fill="#8b95ad" dx="6">PRs · 52 merged</tspan></text><circle cx="35" cy="174" r="3" fill="#ff6592"/><circle cx="35" cy="174" r="7" fill="#ff6592" opacity="0.18"/><text x="48" y="178" font-family="Inter, 'Segoe UI', Ubuntu, 'Helvetica Neue', Arial, sans-serif" font-size="13.5"><tspan fill="#f1f3fc" font-weight="700">24d</tspan><tspan fill="#8b95ad" dx="6">current streak</tspan></text><circle cx="227" cy="174" r="3" fill="#fea334"/><circle cx="227" cy="174" r="7" fill="#fea334" opacity="0.18"/><text x="240" y="178" font-family="Inter, 'Segoe UI', Ubuntu, 'Helvetica Neue', Arial, sans-serif" font-size="13.5"><tspan fill="#f1f3fc" font-weight="700">58d</tspan><tspan fill="#8b95ad" dx="6">longest streak, 12 mo</tspan></text>
<text x="468" y="40" fill="#bdd3ef" font-family="Inter, 'Segoe UI', Ubuntu, 'Helvetica Neue', Arial, sans-serif" font-size="11" font-weight="600" letter-spacing="2.2">TOP LANGUAGES · PUBLIC REPOS</text><clipPath id="bar"><rect x="468" y="58" width="380" height="8" rx="4"/></clipPath><g clip-path="url(#bar)"><rect x="468.0" y="58" width="197.6" height="8" fill="#22baf3"/><rect x="665.1" y="58" width="119.6" height="8" fill="#7c83ff"/><rect x="784.2" y="58" width="31.2" height="8" fill="#cb69f3"/><rect x="814.9" y="58" width="15.4" height="8" fill="#ff6592"/><rect x="829.8" y="58" width="10.4" height="8" fill="#fea334"/><rect x="839.8" y="58" width="5.4" height="8" fill="#94dcf5"/><rect x="844.7" y="58" width="2.4" height="8" fill="#ffcba8"/><rect x="846.6" y="58" width="1.9" height="8" fill="#8b95ad"/></g><circle cx="472" cy="93.5" r="3.5" fill="#22baf3"/><circle cx="472" cy="93.5" r="7.5" fill="#22baf3" opacity="0.18"/><text x="486" y="98" font-family="Inter, 'Segoe UI', Ubuntu, 'Helvetica Neue', Arial, sans-serif" font-size="13.5"><tspan fill="#f1f3fc">TypeScript</tspan><tspan fill="#8b95ad" dx="6">51.9%</tspan></text><circle cx="668" cy="93.5" r="3.5" fill="#7c83ff"/><circle cx="668" cy="93.5" r="7.5" fill="#7c83ff" opacity="0.18"/><text x="682" y="98" font-family="Inter, 'Segoe UI', Ubuntu, 'Helvetica Neue', Arial, sans-serif" font-size="13.5"><tspan fill="#f1f3fc">C#</tspan><tspan fill="#8b95ad" dx="6">31.3%</tspan></text><circle cx="472" cy="119.5" r="3.5" fill="#cb69f3"/><circle cx="472" cy="119.5" r="7.5" fill="#cb69f3" opacity="0.18"/><text x="486" y="124" font-family="Inter, 'Segoe UI', Ubuntu, 'Helvetica Neue', Arial, sans-serif" font-size="13.5"><tspan fill="#f1f3fc">Haxe</tspan><tspan fill="#8b95ad" dx="6">8.1%</tspan></text><circle cx="668" cy="119.5" r="3.5" fill="#ff6592"/><circle cx="668" cy="119.5" r="7.5" fill="#ff6592" opacity="0.18"/><text x="682" y="124" font-family="Inter, 'Segoe UI', Ubuntu, 'Helvetica Neue', Arial, sans-serif" font-size="13.5"><tspan fill="#f1f3fc">Rust</tspan><tspan fill="#8b95ad" dx="6">3.9%</tspan></text><circle cx="472" cy="145.5" r="3.5" fill="#fea334"/><circle cx="472" cy="145.5" r="7.5" fill="#fea334" opacity="0.18"/><text x="486" y="150" font-family="Inter, 'Segoe UI', Ubuntu, 'Helvetica Neue', Arial, sans-serif" font-size="13.5"><tspan fill="#f1f3fc">Python</tspan><tspan fill="#8b95ad" dx="6">2.6%</tspan></text><circle cx="668" cy="145.5" r="3.5" fill="#94dcf5"/><circle cx="668" cy="145.5" r="7.5" fill="#94dcf5" opacity="0.18"/><text x="682" y="150" font-family="Inter, 'Segoe UI', Ubuntu, 'Helvetica Neue', Arial, sans-serif" font-size="13.5"><tspan fill="#f1f3fc">Shell</tspan><tspan fill="#8b95ad" dx="6">1.3%</tspan></text><circle cx="472" cy="171.5" r="3.5" fill="#ffcba8"/><circle cx="472" cy="171.5" r="7.5" fill="#ffcba8" opacity="0.18"/><text x="486" y="176" font-family="Inter, 'Segoe UI', Ubuntu, 'Helvetica Neue', Arial, sans-serif" font-size="13.5"><tspan fill="#f1f3fc">PLpgSQL</tspan><tspan fill="#8b95ad" dx="6">0.5%</tspan></text><circle cx="668" cy="171.5" r="3.5" fill="#8b95ad"/><circle cx="668" cy="171.5" r="7.5" fill="#8b95ad" opacity="0.18"/><text x="682" y="176" font-family="Inter, 'Segoe UI', Ubuntu, 'Helvetica Neue', Arial, sans-serif" font-size="13.5"><tspan fill="#f1f3fc">JavaScript</tspan><tspan fill="#8b95ad" dx="6">0.4%</tspan></text>
<text x="32" y="240" fill="#bdd3ef" font-family="Inter, 'Segoe UI', Ubuntu, 'Helvetica Neue', Arial, sans-serif" font-size="11" font-weight="600" letter-spacing="2.2">CONTRIBUTIONS PER YEAR</text><line x1="32" y1="360.5" x2="848" y2="360.5" stroke="#384155"/><rect x="49.0" y="358.0" width="34.0" height="2.0" rx="4" fill="url(#beam)" opacity="0.55" filter="url(#glow)"/><rect x="49.0" y="358.0" width="34.0" height="2.0" rx="4" fill="url(#beam)"/><text x="66.0" y="350.0" fill="#bdd3ef" font-family="Inter, 'Segoe UI', Ubuntu, 'Helvetica Neue', Arial, sans-serif" font-size="11.5" font-weight="600" text-anchor="middle">9</text><text x="66.0" y="380" fill="#8b95ad" font-family="'JetBrains Mono', 'SFMono-Regular', Consolas, 'Liberation Mono', monospace" font-size="10.5" text-anchor="middle">2015</text><rect x="117.0" y="358.0" width="34.0" height="2.0" rx="4" fill="url(#beam)" opacity="0.55" filter="url(#glow)"/><rect x="117.0" y="358.0" width="34.0" height="2.0" rx="4" fill="url(#beam)"/><text x="134.0" y="350.0" fill="#bdd3ef" font-family="Inter, 'Segoe UI', Ubuntu, 'Helvetica Neue', Arial, sans-serif" font-size="11.5" font-weight="600" text-anchor="middle">6</text><text x="134.0" y="380" fill="#8b95ad" font-family="'JetBrains Mono', 'SFMono-Regular', Consolas, 'Liberation Mono', monospace" font-size="10.5" text-anchor="middle">2016</text><rect x="185.0" y="358.0" width="34.0" height="2.0" rx="4" fill="url(#beam)" opacity="0.55" filter="url(#glow)"/><rect x="185.0" y="358.0" width="34.0" height="2.0" rx="4" fill="url(#beam)"/><text x="202.0" y="350.0" fill="#bdd3ef" font-family="Inter, 'Segoe UI', Ubuntu, 'Helvetica Neue', Arial, sans-serif" font-size="11.5" font-weight="600" text-anchor="middle">7</text><text x="202.0" y="380" fill="#8b95ad" font-family="'JetBrains Mono', 'SFMono-Regular', Consolas, 'Liberation Mono', monospace" font-size="10.5" text-anchor="middle">2017</text><rect x="253.0" y="355.4" width="34.0" height="4.6" rx="4" fill="url(#beam)" opacity="0.55" filter="url(#glow)"/><rect x="253.0" y="355.4" width="34.0" height="4.6" rx="4" fill="url(#beam)"/><text x="270.0" y="347.4" fill="#bdd3ef" font-family="Inter, 'Segoe UI', Ubuntu, 'Helvetica Neue', Arial, sans-serif" font-size="11.5" font-weight="600" text-anchor="middle">119</text><text x="270.0" y="380" fill="#8b95ad" font-family="'JetBrains Mono', 'SFMono-Regular', Consolas, 'Liberation Mono', monospace" font-size="10.5" text-anchor="middle">2018</text><rect x="321.0" y="358.0" width="34.0" height="2.0" rx="4" fill="url(#beam)" opacity="0.55" filter="url(#glow)"/><rect x="321.0" y="358.0" width="34.0" height="2.0" rx="4" fill="url(#beam)"/><text x="338.0" y="350.0" fill="#bdd3ef" font-family="Inter, 'Segoe UI', Ubuntu, 'Helvetica Neue', Arial, sans-serif" font-size="11.5" font-weight="600" text-anchor="middle">9</text><text x="338.0" y="380" fill="#8b95ad" font-family="'JetBrains Mono', 'SFMono-Regular', Consolas, 'Liberation Mono', monospace" font-size="10.5" text-anchor="middle">2019</text><rect x="389.0" y="358.0" width="34.0" height="2.0" rx="4" fill="url(#beam)" opacity="0.55" filter="url(#glow)"/><rect x="389.0" y="358.0" width="34.0" height="2.0" rx="4" fill="url(#beam)"/><text x="406.0" y="350.0" fill="#bdd3ef" font-family="Inter, 'Segoe UI', Ubuntu, 'Helvetica Neue', Arial, sans-serif" font-size="11.5" font-weight="600" text-anchor="middle">48</text><text x="406.0" y="380" fill="#8b95ad" font-family="'JetBrains Mono', 'SFMono-Regular', Consolas, 'Liberation Mono', monospace" font-size="10.5" text-anchor="middle">2020</text><rect x="457.0" y="323.5" width="34.0" height="36.5" rx="4" fill="url(#beam)" opacity="0.55" filter="url(#glow)"/><rect x="457.0" y="323.5" width="34.0" height="36.5" rx="4" fill="url(#beam)"/><text x="474.0" y="315.5" fill="#bdd3ef" font-family="Inter, 'Segoe UI', Ubuntu, 'Helvetica Neue', Arial, sans-serif" font-size="11.5" font-weight="600" text-anchor="middle">949</text><text x="474.0" y="380" fill="#8b95ad" font-family="'JetBrains Mono', 'SFMono-Regular', Consolas, 'Liberation Mono', monospace" font-size="10.5" text-anchor="middle">2021</text><rect x="525.0" y="352.3" width="34.0" height="7.7" rx="4" fill="url(#beam)" opacity="0.55" filter="url(#glow)"/><rect x="525.0" y="352.3" width="34.0" height="7.7" rx="4" fill="url(#beam)"/><text x="542.0" y="344.3" fill="#bdd3ef" font-family="Inter, 'Segoe UI', Ubuntu, 'Helvetica Neue', Arial, sans-serif" font-size="11.5" font-weight="600" text-anchor="middle">201</text><text x="542.0" y="380" fill="#8b95ad" font-family="'JetBrains Mono', 'SFMono-Regular', Consolas, 'Liberation Mono', monospace" font-size="10.5" text-anchor="middle">2022</text><rect x="593.0" y="349.2" width="34.0" height="10.8" rx="4" fill="url(#beam)" opacity="0.55" filter="url(#glow)"/><rect x="593.0" y="349.2" width="34.0" height="10.8" rx="4" fill="url(#beam)"/><text x="610.0" y="341.2" fill="#bdd3ef" font-family="Inter, 'Segoe UI', Ubuntu, 'Helvetica Neue', Arial, sans-serif" font-size="11.5" font-weight="600" text-anchor="middle">281</text><text x="610.0" y="380" fill="#8b95ad" font-family="'JetBrains Mono', 'SFMono-Regular', Consolas, 'Liberation Mono', monospace" font-size="10.5" text-anchor="middle">2023</text><rect x="661.0" y="339.6" width="34.0" height="20.4" rx="4" fill="url(#beam)" opacity="0.55" filter="url(#glow)"/><rect x="661.0" y="339.6" width="34.0" height="20.4" rx="4" fill="url(#beam)"/><text x="678.0" y="331.6" fill="#bdd3ef" font-family="Inter, 'Segoe UI', Ubuntu, 'Helvetica Neue', Arial, sans-serif" font-size="11.5" font-weight="600" text-anchor="middle">531</text><text x="678.0" y="380" fill="#8b95ad" font-family="'JetBrains Mono', 'SFMono-Regular', Consolas, 'Liberation Mono', monospace" font-size="10.5" text-anchor="middle">2024</text><rect x="729.0" y="276.0" width="34.0" height="84.0" rx="4" fill="url(#beam)" opacity="0.55" filter="url(#glow)"/><rect x="729.0" y="276.0" width="34.0" height="84.0" rx="4" fill="url(#beam)"/><text x="746.0" y="268.0" fill="#bdd3ef" font-family="Inter, 'Segoe UI', Ubuntu, 'Helvetica Neue', Arial, sans-serif" font-size="11.5" font-weight="600" text-anchor="middle">2,184</text><text x="746.0" y="380" fill="#8b95ad" font-family="'JetBrains Mono', 'SFMono-Regular', Consolas, 'Liberation Mono', monospace" font-size="10.5" text-anchor="middle">2025</text><rect x="797.0" y="291.4" width="34.0" height="68.6" rx="4" fill="url(#beamNow)" opacity="0.55" filter="url(#glow)"/><rect x="797.0" y="291.4" width="34.0" height="68.6" rx="4" fill="url(#beamNow)"/><text x="814.0" y="283.4" fill="#ffcba8" font-family="Inter, 'Segoe UI', Ubuntu, 'Helvetica Neue', Arial, sans-serif" font-size="11.5" font-weight="600" text-anchor="middle">1,783</text><text x="814.0" y="380" fill="#8b95ad" font-family="'JetBrains Mono', 'SFMono-Regular', Consolas, 'Liberation Mono', monospace" font-size="10.5" text-anchor="middle">2026</text>
<rect x="32" y="400" width="816" height="1" fill="url(#fadeH)"/>
<text x="32" y="425" fill="#8b95ad" font-family="'JetBrains Mono', 'SFMono-Regular', Consolas, 'Liberation Mono', monospace" font-size="10.5" letter-spacing="1">AUTO-UPDATED · OCT 03, 2026 · 05:24 UTC</text>
<text x="848" y="425" fill="#8b95ad" font-family="'JetBrains Mono', 'SFMono-Regular', Consolas, 'Liberation Mono', monospace" font-size="10.5" letter-spacing="1" text-anchor="end">GITHUB.COM/NAXECODE</text>
</svg>
